<mxfile host="app.diagrams.net" agent="Mozilla/5.0 (Windows NT 10.0; Win64; x64) AppleWebKit/537.36 (KHTML, like Gecko) Chrome/132.0.0.0 Safari/537.36 OPR/117.0.0.0" version="26.2.10">
  <diagram name="Page-1" id="Gwo4Q6TwkGqaBDWHts7q">
    <mxGraphModel dx="5543" dy="1807" grid="1" gridSize="10" guides="1" tooltips="1" connect="1" arrows="1" fold="1" page="1" pageScale="1" pageWidth="1100" pageHeight="850" math="0" shadow="0">
      <root>
        <mxCell id="0" />
        <mxCell id="1" parent="0" />
        <mxCell id="SXWqYd9VcLFMOsoht8He-1" value="&lt;font style=&quot;font-size: 16px;&quot;&gt;Client&lt;/font&gt;" style="swimlane;fontStyle=1;align=center;verticalAlign=top;childLayout=stackLayout;horizontal=1;startSize=30;horizontalStack=0;resizeParent=1;resizeParentMax=0;resizeLast=0;collapsible=1;marginBottom=0;whiteSpace=wrap;html=1;" parent="1" vertex="1">
          <mxGeometry x="620" y="1130" width="300" height="290" as="geometry" />
        </mxCell>
        <mxCell id="SXWqYd9VcLFMOsoht8He-2" value="&lt;div style=&quot;line-height: 140%;&quot;&gt;&lt;font style=&quot;font-size: 15px; line-height: 140%;&quot;&gt;- id: int&lt;/font&gt;&lt;div&gt;&lt;font style=&quot;font-size: 15px; line-height: 140%;&quot;&gt;- arrivalTime: int&lt;/font&gt;&lt;/div&gt;&lt;div&gt;&lt;font style=&quot;font-size: 15px; line-height: 140%;&quot;&gt;- serviceTime: int&lt;/font&gt;&lt;/div&gt;&lt;div&gt;&lt;font style=&quot;font-size: 15px; line-height: 140%;&quot;&gt;- remainingServiceTime: int&lt;/font&gt;&lt;/div&gt;&lt;/div&gt;" style="text;strokeColor=none;fillColor=none;align=left;verticalAlign=top;spacingLeft=4;spacingRight=4;overflow=hidden;rotatable=0;points=[[0,0.5],[1,0.5]];portConstraint=eastwest;whiteSpace=wrap;html=1;" parent="SXWqYd9VcLFMOsoht8He-1" vertex="1">
          <mxGeometry y="30" width="300" height="100" as="geometry" />
        </mxCell>
        <mxCell id="SXWqYd9VcLFMOsoht8He-3" value="" style="line;strokeWidth=1;fillColor=none;align=left;verticalAlign=middle;spacingTop=-1;spacingLeft=3;spacingRight=3;rotatable=0;labelPosition=right;points=[];portConstraint=eastwest;strokeColor=inherit;" parent="SXWqYd9VcLFMOsoht8He-1" vertex="1">
          <mxGeometry y="130" width="300" height="8" as="geometry" />
        </mxCell>
        <mxCell id="SXWqYd9VcLFMOsoht8He-4" value="&lt;div style=&quot;line-height: 150%;&quot;&gt;+ toString(): String&lt;div&gt;+ decrementRemainingServiceTime(): void&lt;/div&gt;&lt;div&gt;+ getId(): int&lt;/div&gt;&lt;div&gt;+ getArrivalTime(): int&lt;/div&gt;&lt;div&gt;+ getServiceTime(): int&lt;/div&gt;&lt;div&gt;+ getRemainingServiceTime(): int&lt;/div&gt;&lt;/div&gt;" style="text;strokeColor=none;fillColor=none;align=left;verticalAlign=top;spacingLeft=4;spacingRight=4;overflow=hidden;rotatable=0;points=[[0,0.5],[1,0.5]];portConstraint=eastwest;whiteSpace=wrap;html=1;fontSize=15;" parent="SXWqYd9VcLFMOsoht8He-1" vertex="1">
          <mxGeometry y="138" width="300" height="152" as="geometry" />
        </mxCell>
        <mxCell id="SXWqYd9VcLFMOsoht8He-9" value="&lt;font style=&quot;font-size: 16px;&quot;&gt;Server&lt;/font&gt;" style="swimlane;fontStyle=1;align=center;verticalAlign=top;childLayout=stackLayout;horizontal=1;startSize=26;horizontalStack=0;resizeParent=1;resizeParentMax=0;resizeLast=0;collapsible=1;marginBottom=0;whiteSpace=wrap;html=1;" parent="1" vertex="1">
          <mxGeometry x="640" y="1540" width="280" height="420" as="geometry" />
        </mxCell>
        <mxCell id="SXWqYd9VcLFMOsoht8He-10" value="&lt;div style=&quot;line-height: 140%;&quot;&gt;- ID: int&lt;/div&gt;&lt;div style=&quot;line-height: 140%;&quot;&gt;- clients: BlockingQueue&amp;lt;Client&amp;gt;&lt;/div&gt;&lt;div style=&quot;line-height: 140%;&quot;&gt;- waitingPeriod: AtomicInteger&lt;/div&gt;&lt;div style=&quot;line-height: 140%;&quot;&gt;- clock: SimulationClock&lt;/div&gt;&lt;div style=&quot;line-height: 140%;&quot;&gt;- running: boolean&lt;/div&gt;&lt;div style=&quot;line-height: 140%;&quot;&gt;&amp;nbsp;- processingClient: Client&lt;/div&gt;&lt;div style=&quot;line-height: 140%;&quot;&gt;- barrier: CyclicBarrier&lt;/div&gt;&lt;div style=&quot;line-height: 140%;&quot;&gt;- completionListener: ClientCompletion&lt;/div&gt;" style="text;strokeColor=none;fillColor=none;align=left;verticalAlign=top;spacingLeft=4;spacingRight=4;overflow=hidden;rotatable=0;points=[[0,0.5],[1,0.5]];portConstraint=eastwest;whiteSpace=wrap;html=1;fontSize=15;" parent="SXWqYd9VcLFMOsoht8He-9" vertex="1">
          <mxGeometry y="26" width="280" height="184" as="geometry" />
        </mxCell>
        <mxCell id="SXWqYd9VcLFMOsoht8He-11" value="" style="line;strokeWidth=1;fillColor=none;align=left;verticalAlign=middle;spacingTop=-1;spacingLeft=3;spacingRight=3;rotatable=0;labelPosition=right;points=[];portConstraint=eastwest;strokeColor=inherit;" parent="SXWqYd9VcLFMOsoht8He-9" vertex="1">
          <mxGeometry y="210" width="280" height="8" as="geometry" />
        </mxCell>
        <mxCell id="SXWqYd9VcLFMOsoht8He-12" value="&lt;div style=&quot;line-height: 140%;&quot;&gt;+ addClient(client: Client): void&lt;/div&gt;&lt;div style=&quot;line-height: 140%;&quot;&gt;- processClient(client: Client): void&amp;nbsp;&lt;/div&gt;&lt;div style=&quot;line-height: 140%;&quot;&gt;+ run(): void&lt;/div&gt;&lt;div style=&quot;line-height: 140%;&quot;&gt;+ stopServer(): void&lt;/div&gt;&lt;div style=&quot;line-height: 140%;&quot;&gt;+ isQueueEmpty(): boolean&lt;/div&gt;&lt;div style=&quot;line-height: 140%;&quot;&gt;+ getProcessingClient(): Client&lt;/div&gt;&lt;div style=&quot;line-height: 140%;&quot;&gt;+ getWaitingTime(): int&lt;/div&gt;&lt;div style=&quot;line-height: 140%;&quot;&gt;+ getClients(): BlockingQueue&amp;lt;Client&amp;gt;&lt;/div&gt;&lt;div style=&quot;line-height: 140%;&quot;&gt;+ getId(): int&lt;/div&gt;" style="text;strokeColor=none;fillColor=none;align=left;verticalAlign=top;spacingLeft=4;spacingRight=4;overflow=hidden;rotatable=0;points=[[0,0.5],[1,0.5]];portConstraint=eastwest;whiteSpace=wrap;html=1;fontSize=15;" parent="SXWqYd9VcLFMOsoht8He-9" vertex="1">
          <mxGeometry y="218" width="280" height="202" as="geometry" />
        </mxCell>
        <mxCell id="mOy5TlZxNX7XXbt4o4xT-1" value="&lt;p style=&quot;margin:0px;margin-top:4px;text-align:center;&quot;&gt;&lt;font style=&quot;font-size: 15px; line-height: 140%;&quot;&gt;&lt;i&gt;&amp;lt;&amp;lt;Interface&amp;gt;&amp;gt;&lt;/i&gt;&lt;br&gt;&lt;b&gt;Strategy&lt;/b&gt;&lt;/font&gt;&lt;/p&gt;&lt;p style=&quot;margin:0px;margin-left:4px;&quot;&gt;&lt;br&gt;&lt;/p&gt;&lt;hr size=&quot;1&quot; style=&quot;border-style:solid;&quot;&gt;&lt;p style=&quot;margin:0px;margin-left:4px;&quot;&gt;&lt;span style=&quot;font-size: 15px;&quot;&gt;+ addClient(servers: List&amp;lt;Servers&amp;gt;, client: Client): void&lt;/span&gt;&lt;/p&gt;" style="verticalAlign=top;align=left;overflow=fill;html=1;whiteSpace=wrap;" parent="1" vertex="1">
          <mxGeometry x="-1800" y="880" width="380" height="100" as="geometry" />
        </mxCell>
        <mxCell id="mOy5TlZxNX7XXbt4o4xT-6" value="&lt;span style=&quot;font-size: 15px;&quot;&gt;&lt;b&gt;EmptyQueueStrategy&lt;/b&gt;&lt;/span&gt;" style="swimlane;fontStyle=0;childLayout=stackLayout;horizontal=1;startSize=30;fillColor=none;horizontalStack=0;resizeParent=1;resizeParentMax=0;resizeLast=0;collapsible=1;marginBottom=0;whiteSpace=wrap;html=1;" parent="1" vertex="1">
          <mxGeometry x="-2010" y="1120" width="370" height="64" as="geometry" />
        </mxCell>
        <mxCell id="mOy5TlZxNX7XXbt4o4xT-7" value="&lt;font style=&quot;font-size: 15px; line-height: 140%;&quot;&gt;+ addClient(servers: List&amp;lt;Server&amp;gt;, client: Client): void&lt;/font&gt;&amp;nbsp;&lt;div&gt;&lt;/div&gt;" style="text;strokeColor=none;fillColor=none;align=left;verticalAlign=top;spacingLeft=4;spacingRight=4;overflow=hidden;rotatable=0;points=[[0,0.5],[1,0.5]];portConstraint=eastwest;whiteSpace=wrap;html=1;" parent="mOy5TlZxNX7XXbt4o4xT-6" vertex="1">
          <mxGeometry y="30" width="370" height="34" as="geometry" />
        </mxCell>
        <mxCell id="mOy5TlZxNX7XXbt4o4xT-10" value="&lt;span style=&quot;font-size: 15px;&quot;&gt;&lt;b&gt;ShortestTimeStrategy&lt;/b&gt;&lt;/span&gt;" style="swimlane;fontStyle=0;childLayout=stackLayout;horizontal=1;startSize=30;fillColor=none;horizontalStack=0;resizeParent=1;resizeParentMax=0;resizeLast=0;collapsible=1;marginBottom=0;whiteSpace=wrap;html=1;" parent="1" vertex="1">
          <mxGeometry x="-1560" y="1120" width="370" height="64" as="geometry" />
        </mxCell>
        <mxCell id="mOy5TlZxNX7XXbt4o4xT-11" value="&lt;font style=&quot;font-size: 15px; line-height: 140%;&quot;&gt;+ addClient(servers: List&amp;lt;Server&amp;gt;, client: Client): void&lt;/font&gt;&amp;nbsp;&lt;div&gt;&lt;/div&gt;" style="text;strokeColor=none;fillColor=none;align=left;verticalAlign=top;spacingLeft=4;spacingRight=4;overflow=hidden;rotatable=0;points=[[0,0.5],[1,0.5]];portConstraint=eastwest;whiteSpace=wrap;html=1;" parent="mOy5TlZxNX7XXbt4o4xT-10" vertex="1">
          <mxGeometry y="30" width="370" height="34" as="geometry" />
        </mxCell>
        <mxCell id="mOy5TlZxNX7XXbt4o4xT-12" value="&lt;p style=&quot;margin:0px;margin-top:4px;text-align:center;&quot;&gt;&lt;font style=&quot;font-size: 15px; line-height: 140%;&quot;&gt;&lt;i&gt;&amp;lt;&amp;lt;Interface&amp;gt;&amp;gt;&lt;/i&gt;&lt;br&gt;&lt;b&gt;ClientCompletion&lt;/b&gt;&lt;/font&gt;&lt;/p&gt;&lt;p style=&quot;margin:0px;margin-left:4px;&quot;&gt;&lt;br&gt;&lt;/p&gt;&lt;hr size=&quot;1&quot; style=&quot;border-style:solid;&quot;&gt;&lt;p style=&quot;margin:0px;margin-left:4px;&quot;&gt;&lt;span style=&quot;font-size: 15px;&quot;&gt;+ clientCompleted(cllient: Client, waitingTime: int): void&amp;nbsp;&lt;/span&gt;&lt;/p&gt;" style="verticalAlign=top;align=left;overflow=fill;html=1;whiteSpace=wrap;" parent="1" vertex="1">
          <mxGeometry x="-100" y="940" width="380" height="100" as="geometry" />
        </mxCell>
        <mxCell id="mOy5TlZxNX7XXbt4o4xT-13" value="&lt;p style=&quot;margin:0px;margin-top:4px;text-align:center;&quot;&gt;&lt;font style=&quot;font-size: 15px; line-height: 140%;&quot;&gt;&lt;i&gt;&amp;lt;&amp;lt;Interface&amp;gt;&amp;gt;&lt;/i&gt;&lt;br&gt;&lt;b&gt;SimulationUpdate&lt;/b&gt;&lt;/font&gt;&lt;/p&gt;&lt;p style=&quot;margin:0px;margin-left:4px;&quot;&gt;&lt;br&gt;&lt;/p&gt;&lt;hr size=&quot;1&quot; style=&quot;border-style:solid;&quot;&gt;&lt;p style=&quot;margin:0px;margin-left:4px;&quot;&gt;&lt;span style=&quot;font-size: 15px;&quot;&gt;+ onSimulationUpdated(currentTime: int): void&amp;nbsp;&lt;/span&gt;&lt;/p&gt;&lt;p style=&quot;margin:0px;margin-left:4px;&quot;&gt;&lt;span style=&quot;font-size: 15px;&quot;&gt;+ onSimulationEnded(): void&lt;/span&gt;&lt;/p&gt;" style="verticalAlign=top;align=left;overflow=fill;html=1;whiteSpace=wrap;" parent="1" vertex="1">
          <mxGeometry x="-620" y="920" width="320" height="120" as="geometry" />
        </mxCell>
        <mxCell id="mOy5TlZxNX7XXbt4o4xT-14" value="Generator" style="swimlane;fontStyle=1;align=center;verticalAlign=top;childLayout=stackLayout;horizontal=1;startSize=26;horizontalStack=0;resizeParent=1;resizeParentMax=0;resizeLast=0;collapsible=1;marginBottom=0;whiteSpace=wrap;html=1;fontSize=15;" parent="1" vertex="1">
          <mxGeometry x="-1700" y="100" width="750" height="420" as="geometry" />
        </mxCell>
        <mxCell id="mOy5TlZxNX7XXbt4o4xT-15" value="&lt;font style=&quot;font-size: 15px; line-height: 140%;&quot;&gt;- numberOfClients: int&lt;/font&gt;&lt;div&gt;&lt;font style=&quot;font-size: 15px; line-height: 140%;&quot;&gt;- numberOfQueues: int&lt;/font&gt;&lt;/div&gt;&lt;div&gt;&lt;font style=&quot;font-size: 15px; line-height: 140%;&quot;&gt;- minimumArrivalTime: int&lt;/font&gt;&lt;/div&gt;&lt;div&gt;&lt;font style=&quot;font-size: 15px; line-height: 140%;&quot;&gt;- maximumArrivalTime: int&lt;/font&gt;&lt;/div&gt;&lt;div&gt;&lt;font style=&quot;font-size: 15px; line-height: 140%;&quot;&gt;- minimumServiceTime: int&lt;/font&gt;&lt;/div&gt;&lt;div&gt;&lt;font style=&quot;font-size: 15px; line-height: 140%;&quot;&gt;-maximumServiceTime: int&lt;/font&gt;&lt;/div&gt;" style="text;strokeColor=none;fillColor=none;align=left;verticalAlign=top;spacingLeft=4;spacingRight=4;overflow=hidden;rotatable=0;points=[[0,0.5],[1,0.5]];portConstraint=eastwest;whiteSpace=wrap;html=1;" parent="mOy5TlZxNX7XXbt4o4xT-14" vertex="1">
          <mxGeometry y="26" width="750" height="144" as="geometry" />
        </mxCell>
        <mxCell id="mOy5TlZxNX7XXbt4o4xT-16" value="" style="line;strokeWidth=1;fillColor=none;align=left;verticalAlign=middle;spacingTop=-1;spacingLeft=3;spacingRight=3;rotatable=0;labelPosition=right;points=[];portConstraint=eastwest;strokeColor=inherit;" parent="mOy5TlZxNX7XXbt4o4xT-14" vertex="1">
          <mxGeometry y="170" width="750" height="8" as="geometry" />
        </mxCell>
        <mxCell id="mOy5TlZxNX7XXbt4o4xT-17" value="&lt;div style=&quot;line-height: 140%;&quot;&gt;&lt;font style=&quot;font-size: 15px; line-height: 140%;&quot;&gt;+ setInputData(numberOfClients: int, numberOfQueues: int, minimumArrivalTime: int&lt;/font&gt;&lt;span style=&quot;font-size: 15px; background-color: transparent; color: light-dark(rgb(0, 0, 0), rgb(255, 255, 255)); line-height: 140%;&quot;&gt;,&amp;nbsp;&lt;/span&gt;&lt;div&gt;&lt;span style=&quot;font-size: 15px; background-color: transparent; color: light-dark(rgb(0, 0, 0), rgb(255, 255, 255)); line-height: 140%;&quot;&gt;&amp;nbsp; &amp;nbsp; maximumArrivalTime: int, minimumServiceTime: int, maximumServiceTime: int): void&lt;/span&gt;&lt;/div&gt;&lt;div&gt;&lt;span style=&quot;font-size: 15px; line-height: 140%;&quot;&gt;- sortList(list: List&amp;lt;Client&amp;gt;): void&lt;/span&gt;&lt;/div&gt;&lt;div&gt;&lt;span style=&quot;font-size: 15px; line-height: 140%;&quot;&gt;+ generateRandomClients(): ArrayList&amp;lt;Client&amp;gt;&lt;/span&gt;&lt;/div&gt;&lt;div&gt;&lt;span style=&quot;font-size: 15px; line-height: 140%;&quot;&gt;+ generateServers(clock: SimulationClock, barrier: CyclicBarrier, listener: ClientCompletion): ArrayList&amp;lt;Server&amp;gt;&lt;/span&gt;&lt;/div&gt;&lt;div&gt;&lt;span style=&quot;font-size: 15px; line-height: 140%;&quot;&gt;+ getNumberOfClients(): int&lt;/span&gt;&lt;/div&gt;&lt;div&gt;&lt;span style=&quot;font-size: 15px; line-height: 140%;&quot;&gt;+ getNumberOfQueues(): int&lt;/span&gt;&lt;/div&gt;&lt;div&gt;&lt;span style=&quot;font-size: 15px; line-height: 140%;&quot;&gt;+ getMinimumArrivalTime(): int&lt;/span&gt;&lt;/div&gt;&lt;div&gt;&lt;span style=&quot;font-size: 15px; line-height: 140%;&quot;&gt;+ getMaximumArrivalTime(): int&lt;/span&gt;&lt;/div&gt;&lt;div&gt;&lt;span style=&quot;font-size: 15px; line-height: 140%;&quot;&gt;+ getMinimumServiceTime(): int&lt;/span&gt;&lt;/div&gt;&lt;div&gt;&lt;span style=&quot;font-size: 15px; line-height: 140%;&quot;&gt;+ getMaximumServiceTime(): int&lt;/span&gt;&lt;/div&gt;&lt;/div&gt;" style="text;strokeColor=none;fillColor=none;align=left;verticalAlign=top;spacingLeft=4;spacingRight=4;overflow=hidden;rotatable=0;points=[[0,0.5],[1,0.5]];portConstraint=eastwest;whiteSpace=wrap;html=1;" parent="mOy5TlZxNX7XXbt4o4xT-14" vertex="1">
          <mxGeometry y="178" width="750" height="242" as="geometry" />
        </mxCell>
        <mxCell id="mOy5TlZxNX7XXbt4o4xT-18" value="&lt;font style=&quot;font-size: 16px;&quot;&gt;Scheduler&lt;/font&gt;" style="swimlane;fontStyle=1;align=center;verticalAlign=top;childLayout=stackLayout;horizontal=1;startSize=26;horizontalStack=0;resizeParent=1;resizeParentMax=0;resizeLast=0;collapsible=1;marginBottom=0;whiteSpace=wrap;html=1;" parent="1" vertex="1">
          <mxGeometry x="-1290" y="600" width="330" height="190" as="geometry" />
        </mxCell>
        <mxCell id="mOy5TlZxNX7XXbt4o4xT-19" value="&lt;font style=&quot;font-size: 15px; line-height: 140%;&quot;&gt;- servers: List&amp;lt;Server&amp;gt;&lt;/font&gt;&lt;div&gt;&lt;font style=&quot;font-size: 15px; line-height: 140%;&quot;&gt;- strategy: Strategy&lt;/font&gt;&lt;/div&gt;&lt;div&gt;&lt;font style=&quot;font-size: 15px; line-height: 140%;&quot;&gt;- lock: Object&lt;/font&gt;&lt;/div&gt;" style="text;strokeColor=none;fillColor=none;align=left;verticalAlign=top;spacingLeft=4;spacingRight=4;overflow=hidden;rotatable=0;points=[[0,0.5],[1,0.5]];portConstraint=eastwest;whiteSpace=wrap;html=1;" parent="mOy5TlZxNX7XXbt4o4xT-18" vertex="1">
          <mxGeometry y="26" width="330" height="74" as="geometry" />
        </mxCell>
        <mxCell id="mOy5TlZxNX7XXbt4o4xT-20" value="" style="line;strokeWidth=1;fillColor=none;align=left;verticalAlign=middle;spacingTop=-1;spacingLeft=3;spacingRight=3;rotatable=0;labelPosition=right;points=[];portConstraint=eastwest;strokeColor=inherit;" parent="mOy5TlZxNX7XXbt4o4xT-18" vertex="1">
          <mxGeometry y="100" width="330" height="8" as="geometry" />
        </mxCell>
        <mxCell id="mOy5TlZxNX7XXbt4o4xT-21" value="&lt;font style=&quot;font-size: 15px; line-height: 140%;&quot;&gt;+ changeStrategy(policy: SelectionPolicy): void&lt;/font&gt;&lt;div&gt;&lt;font style=&quot;font-size: 15px; line-height: 140%;&quot;&gt;+ dispatchClient(client: Client): void&lt;/font&gt;&lt;/div&gt;&lt;div&gt;&lt;font style=&quot;font-size: 15px; line-height: 140%;&quot;&gt;+ setServers(servers: List&amp;lt;Server): void&lt;/font&gt;&lt;/div&gt;" style="text;strokeColor=none;fillColor=none;align=left;verticalAlign=top;spacingLeft=4;spacingRight=4;overflow=hidden;rotatable=0;points=[[0,0.5],[1,0.5]];portConstraint=eastwest;whiteSpace=wrap;html=1;" parent="mOy5TlZxNX7XXbt4o4xT-18" vertex="1">
          <mxGeometry y="108" width="330" height="82" as="geometry" />
        </mxCell>
        <mxCell id="mOy5TlZxNX7XXbt4o4xT-22" value="&lt;p style=&quot;margin:0px;margin-top:4px;text-align:center;&quot;&gt;&lt;font style=&quot;font-size: 15px; line-height: 140%;&quot;&gt;&lt;i&gt;&amp;lt;&amp;lt;&lt;/i&gt;enumeration&lt;i&gt;&amp;gt;&amp;gt;&lt;/i&gt;&lt;br&gt;&lt;b&gt;SelectionPolicy&lt;/b&gt;&lt;/font&gt;&lt;/p&gt;&lt;p style=&quot;margin:0px;margin-left:4px;&quot;&gt;&lt;br&gt;&lt;/p&gt;&lt;hr size=&quot;1&quot; style=&quot;border-style:solid;&quot;&gt;&lt;p style=&quot;margin:0px;margin-left:4px;&quot;&gt;&lt;span style=&quot;font-size: 15px;&quot;&gt;&amp;nbsp;EMPTY_QUEUE&lt;/span&gt;&lt;/p&gt;&lt;p style=&quot;margin:0px;margin-left:4px;&quot;&gt;&lt;span style=&quot;font-size: 15px;&quot;&gt;&amp;nbsp;SHORTEST_TIME&lt;/span&gt;&lt;/p&gt;" style="verticalAlign=top;align=left;overflow=fill;html=1;whiteSpace=wrap;" parent="1" vertex="1">
          <mxGeometry x="-1930" y="600" width="320" height="120" as="geometry" />
        </mxCell>
        <mxCell id="mOy5TlZxNX7XXbt4o4xT-23" value="&lt;font style=&quot;font-size: 16px;&quot;&gt;SimulationClock&lt;/font&gt;" style="swimlane;fontStyle=1;align=center;verticalAlign=top;childLayout=stackLayout;horizontal=1;startSize=26;horizontalStack=0;resizeParent=1;resizeParentMax=0;resizeLast=0;collapsible=1;marginBottom=0;whiteSpace=wrap;html=1;" parent="1" vertex="1">
          <mxGeometry x="380" y="820" width="190" height="240" as="geometry" />
        </mxCell>
        <mxCell id="mOy5TlZxNX7XXbt4o4xT-24" value="&lt;div style=&quot;line-height: 140%;&quot;&gt;- currentTime: int&lt;/div&gt;&lt;div style=&quot;line-height: 140%;&quot;&gt;- simulationInterval: int&lt;/div&gt;&lt;div style=&quot;line-height: 140%;&quot;&gt;- lock: Object&lt;/div&gt;" style="text;strokeColor=none;fillColor=none;align=left;verticalAlign=top;spacingLeft=4;spacingRight=4;overflow=hidden;rotatable=0;points=[[0,0.5],[1,0.5]];portConstraint=eastwest;whiteSpace=wrap;html=1;fontSize=15;" parent="mOy5TlZxNX7XXbt4o4xT-23" vertex="1">
          <mxGeometry y="26" width="190" height="74" as="geometry" />
        </mxCell>
        <mxCell id="mOy5TlZxNX7XXbt4o4xT-25" value="" style="line;strokeWidth=1;fillColor=none;align=left;verticalAlign=middle;spacingTop=-1;spacingLeft=3;spacingRight=3;rotatable=0;labelPosition=right;points=[];portConstraint=eastwest;strokeColor=inherit;" parent="mOy5TlZxNX7XXbt4o4xT-23" vertex="1">
          <mxGeometry y="100" width="190" height="8" as="geometry" />
        </mxCell>
        <mxCell id="mOy5TlZxNX7XXbt4o4xT-26" value="&lt;font style=&quot;font-size: 15px; line-height: 140%;&quot;&gt;+ hasNextTick(): boolean&lt;/font&gt;&lt;div&gt;&lt;font style=&quot;font-size: 15px; line-height: 140%;&quot;&gt;+ tick(): void&lt;/font&gt;&lt;/div&gt;&lt;div&gt;&lt;font style=&quot;font-size: 15px; line-height: 140%;&quot;&gt;+ notifyAllThreads(): void&lt;/font&gt;&lt;/div&gt;&lt;div&gt;&lt;font style=&quot;font-size: 15px; line-height: 140%;&quot;&gt;+ getCurrentTime(): int&lt;/font&gt;&lt;/div&gt;&lt;div&gt;&lt;font style=&quot;font-size: 15px; line-height: 140%;&quot;&gt;+ getLock(): Object&lt;/font&gt;&lt;/div&gt;" style="text;strokeColor=none;fillColor=none;align=left;verticalAlign=top;spacingLeft=4;spacingRight=4;overflow=hidden;rotatable=0;points=[[0,0.5],[1,0.5]];portConstraint=eastwest;whiteSpace=wrap;html=1;" parent="mOy5TlZxNX7XXbt4o4xT-23" vertex="1">
          <mxGeometry y="108" width="190" height="132" as="geometry" />
        </mxCell>
        <mxCell id="mOy5TlZxNX7XXbt4o4xT-27" value="&lt;font style=&quot;font-size: 16px;&quot;&gt;SimulationManager&lt;/font&gt;" style="swimlane;fontStyle=1;align=center;verticalAlign=top;childLayout=stackLayout;horizontal=1;startSize=36;horizontalStack=0;resizeParent=1;resizeParentMax=0;resizeLast=0;collapsible=1;marginBottom=0;whiteSpace=wrap;html=1;" parent="1" vertex="1">
          <mxGeometry x="-620" y="50" width="790" height="680" as="geometry" />
        </mxCell>
        <mxCell id="mOy5TlZxNX7XXbt4o4xT-28" value="&lt;div style=&quot;line-height: 140%;&quot;&gt;&lt;span style=&quot;font-size: 15px; line-height: 140%;&quot;&gt;- clients: ArrayList&amp;lt;Client&amp;gt;&lt;/span&gt;&lt;div&gt;&lt;span style=&quot;font-size: 15px; line-height: 140%;&quot;&gt;- servers: ArrayList&amp;lt;Server&amp;gt;&lt;/span&gt;&lt;/div&gt;&lt;div&gt;&lt;span style=&quot;font-size: 15px; line-height: 140%;&quot;&gt;- simulationInterval: int&lt;/span&gt;&lt;/div&gt;&lt;div&gt;&lt;span style=&quot;font-size: 15px; line-height: 140%;&quot;&gt;- clock: SimulationClock&lt;/span&gt;&lt;/div&gt;&lt;div&gt;&lt;span style=&quot;font-size: 15px; line-height: 140%;&quot;&gt;- barrier: CyclicBarrier&lt;/span&gt;&lt;/div&gt;&lt;div&gt;&lt;span style=&quot;font-size: 15px; line-height: 140%;&quot;&gt;- generator: Generator&lt;/span&gt;&lt;/div&gt;&lt;div&gt;&lt;span style=&quot;font-size: 15px; line-height: 140%;&quot;&gt;- scheduler: Scheduler&lt;/span&gt;&lt;/div&gt;&lt;div&gt;&lt;span style=&quot;font-size: 15px; line-height: 140%;&quot;&gt;- waitingTimes: Queue&amp;lt;Integer&amp;gt;&lt;/span&gt;&lt;/div&gt;&lt;div&gt;&lt;span style=&quot;font-size: 15px; line-height: 140%;&quot;&gt;- serviceTimes: Queue&amp;lt;Integer&amp;gt;&lt;/span&gt;&lt;/div&gt;&lt;div&gt;&lt;span style=&quot;font-size: 15px; line-height: 140%;&quot;&gt;- peakHour: int&lt;/span&gt;&lt;/div&gt;&lt;div&gt;&lt;span style=&quot;font-size: 15px; line-height: 140%;&quot;&gt;- maxWaitingCount: int&lt;/span&gt;&lt;/div&gt;&lt;div&gt;&lt;span style=&quot;font-size: 15px; line-height: 140%;&quot;&gt;- updateListener: SimulationUpdate&lt;/span&gt;&lt;/div&gt;&lt;/div&gt;" style="text;strokeColor=none;fillColor=none;align=left;verticalAlign=top;spacingLeft=4;spacingRight=4;overflow=hidden;rotatable=0;points=[[0,0.5],[1,0.5]];portConstraint=eastwest;whiteSpace=wrap;html=1;" parent="mOy5TlZxNX7XXbt4o4xT-27" vertex="1">
          <mxGeometry y="36" width="790" height="264" as="geometry" />
        </mxCell>
        <mxCell id="mOy5TlZxNX7XXbt4o4xT-29" value="" style="line;strokeWidth=1;fillColor=none;align=left;verticalAlign=middle;spacingTop=-1;spacingLeft=3;spacingRight=3;rotatable=0;labelPosition=right;points=[];portConstraint=eastwest;strokeColor=inherit;" parent="mOy5TlZxNX7XXbt4o4xT-27" vertex="1">
          <mxGeometry y="300" width="790" height="8" as="geometry" />
        </mxCell>
        <mxCell id="mOy5TlZxNX7XXbt4o4xT-30" value="&lt;div style=&quot;line-height: 150%;&quot;&gt;&lt;div&gt;&lt;font&gt;+ setInputData(numberOfClients: int, numberOfQueues: int,&amp;nbsp;&lt;/font&gt;&lt;span style=&quot;background-color: transparent; color: light-dark(rgb(0, 0, 0), rgb(255, 255, 255));&quot;&gt;simulationInterval: int,&amp;nbsp;&lt;/span&gt;&lt;font style=&quot;background-color: transparent; color: light-dark(rgb(0, 0, 0), rgb(255, 255, 255));&quot;&gt;&amp;nbsp;&lt;/font&gt;&lt;/div&gt;&lt;div&gt;&lt;font style=&quot;background-color: transparent; color: light-dark(rgb(0, 0, 0), rgb(255, 255, 255));&quot;&gt;&amp;nbsp; &amp;nbsp; &amp;nbsp; &amp;nbsp;minimumArrivalTime: int&lt;/font&gt;&lt;span style=&quot;background-color: transparent; color: light-dark(rgb(0, 0, 0), rgb(255, 255, 255));&quot;&gt;,&amp;nbsp;&lt;/span&gt;&lt;span style=&quot;background-color: transparent; color: light-dark(rgb(0, 0, 0), rgb(255, 255, 255));&quot;&gt;maximumArrivalTime: int, minimumServiceTime: int, maximumServiceTime: int): void&lt;/span&gt;&lt;/div&gt;&lt;div&gt;- setServersForScheduler(servers: List&amp;lt;Server&amp;gt;): void&lt;/div&gt;&lt;div&gt;- startAllServers(servers: List&amp;lt;Server&amp;gt;): void&lt;/div&gt;&lt;div&gt;+ generateData(): void&lt;/div&gt;&lt;div&gt;- getReadyClients(): ArrayList&amp;lt;Client&amp;gt;&lt;/div&gt;&lt;div&gt;- updateMaxWaitingCount(): void&lt;/div&gt;&lt;div&gt;- writeToFile(writer: PrintWriter, log: String): void&lt;/div&gt;&lt;div&gt;- writeStatisticsToFile(writer: PrintWriter): void&lt;/div&gt;&lt;div&gt;- calculateAverageTime(listOfTimes: Queue&amp;lt;Integer&amp;gt;): double&lt;/div&gt;&lt;div&gt;- calculateRemainingClientsStatistics(): void&lt;/div&gt;&lt;div&gt;+ run(): void&lt;/div&gt;&lt;div&gt;- buildLog(): String&lt;/div&gt;&lt;div&gt;- stopAllServers(): void&lt;/div&gt;&lt;div&gt;+ clientCompleted(client: Client, waitingTime: int): void&lt;/div&gt;&lt;div&gt;+ setUpdateListener(listener: SimulationUpdate): void&lt;/div&gt;&lt;div&gt;&amp;nbsp;&lt;/div&gt;&lt;/div&gt;" style="text;strokeColor=none;fillColor=none;align=left;verticalAlign=top;spacingLeft=4;spacingRight=4;overflow=hidden;rotatable=0;points=[[0,0.5],[1,0.5]];portConstraint=eastwest;whiteSpace=wrap;html=1;fontSize=15;" parent="mOy5TlZxNX7XXbt4o4xT-27" vertex="1">
          <mxGeometry y="308" width="790" height="372" as="geometry" />
        </mxCell>
        <mxCell id="M_Bqmwzb6-v6zoOLSoaH-2" value="" style="endArrow=diamondThin;endFill=0;endSize=24;html=1;rounded=0;entryX=0.5;entryY=0;entryDx=0;entryDy=0;exitX=0.526;exitY=0.996;exitDx=0;exitDy=0;exitPerimeter=0;" edge="1" parent="1" source="SXWqYd9VcLFMOsoht8He-4" target="SXWqYd9VcLFMOsoht8He-9">
          <mxGeometry width="160" relative="1" as="geometry">
            <mxPoint x="790.1800000000001" y="1420" as="sourcePoint" />
            <mxPoint x="790" y="1529.33" as="targetPoint" />
          </mxGeometry>
        </mxCell>
        <mxCell id="M_Bqmwzb6-v6zoOLSoaH-3" value="" style="endArrow=diamondThin;endFill=0;endSize=24;html=1;rounded=0;exitX=0.317;exitY=0.969;exitDx=0;exitDy=0;exitPerimeter=0;entryX=0;entryY=0.5;entryDx=0;entryDy=0;edgeStyle=orthogonalEdgeStyle;" edge="1" parent="1" target="SXWqYd9VcLFMOsoht8He-10">
          <mxGeometry width="160" relative="1" as="geometry">
            <mxPoint x="430" y="1060" as="sourcePoint" />
            <mxPoint x="430" y="1190" as="targetPoint" />
          </mxGeometry>
        </mxCell>
        <mxCell id="M_Bqmwzb6-v6zoOLSoaH-5" value="" style="endArrow=diamondThin;endFill=1;endSize=24;html=1;rounded=0;exitX=0.5;exitY=0;exitDx=0;exitDy=0;entryX=1;entryY=0.5;entryDx=0;entryDy=0;edgeStyle=orthogonalEdgeStyle;" edge="1" parent="1" source="SXWqYd9VcLFMOsoht8He-1" target="mOy5TlZxNX7XXbt4o4xT-30">
          <mxGeometry width="160" relative="1" as="geometry">
            <mxPoint x="810" y="770" as="sourcePoint" />
            <mxPoint x="970" y="770" as="targetPoint" />
          </mxGeometry>
        </mxCell>
        <mxCell id="M_Bqmwzb6-v6zoOLSoaH-7" value="" style="endArrow=diamondThin;endFill=1;endSize=24;html=1;rounded=0;entryX=1;entryY=0.5;entryDx=0;entryDy=0;exitX=1;exitY=0.5;exitDx=0;exitDy=0;edgeStyle=orthogonalEdgeStyle;" edge="1" parent="1" source="SXWqYd9VcLFMOsoht8He-10" target="mOy5TlZxNX7XXbt4o4xT-28">
          <mxGeometry width="160" relative="1" as="geometry">
            <mxPoint x="700" y="422" as="sourcePoint" />
            <mxPoint x="860" y="422" as="targetPoint" />
            <Array as="points">
              <mxPoint x="980" y="1658" />
              <mxPoint x="980" y="218" />
            </Array>
          </mxGeometry>
        </mxCell>
        <mxCell id="M_Bqmwzb6-v6zoOLSoaH-8" value="" style="endArrow=diamondThin;endFill=1;endSize=24;html=1;rounded=0;entryX=0.996;entryY=0.853;entryDx=0;entryDy=0;entryPerimeter=0;exitX=0.5;exitY=0;exitDx=0;exitDy=0;edgeStyle=orthogonalEdgeStyle;" edge="1" parent="1" source="mOy5TlZxNX7XXbt4o4xT-23" target="mOy5TlZxNX7XXbt4o4xT-30">
          <mxGeometry width="160" relative="1" as="geometry">
            <mxPoint x="460" y="740" as="sourcePoint" />
            <mxPoint x="620" y="740" as="targetPoint" />
          </mxGeometry>
        </mxCell>
        <mxCell id="M_Bqmwzb6-v6zoOLSoaH-9" value="" style="endArrow=block;dashed=1;endFill=0;endSize=12;html=1;rounded=0;exitX=0.844;exitY=1;exitDx=0;exitDy=0;exitPerimeter=0;entryX=0.394;entryY=0.02;entryDx=0;entryDy=0;entryPerimeter=0;" edge="1" parent="1" source="mOy5TlZxNX7XXbt4o4xT-30" target="mOy5TlZxNX7XXbt4o4xT-12">
          <mxGeometry width="160" relative="1" as="geometry">
            <mxPoint x="20" y="790" as="sourcePoint" />
            <mxPoint x="180" y="790" as="targetPoint" />
          </mxGeometry>
        </mxCell>
        <mxCell id="M_Bqmwzb6-v6zoOLSoaH-10" value="" style="endArrow=diamondThin;endFill=1;endSize=24;html=1;rounded=0;exitX=1.002;exitY=0.639;exitDx=0;exitDy=0;exitPerimeter=0;" edge="1" parent="1" source="mOy5TlZxNX7XXbt4o4xT-15" target="mOy5TlZxNX7XXbt4o4xT-28">
          <mxGeometry width="160" relative="1" as="geometry">
            <mxPoint x="-950" y="230" as="sourcePoint" />
            <mxPoint x="-790" y="230" as="targetPoint" />
          </mxGeometry>
        </mxCell>
        <mxCell id="M_Bqmwzb6-v6zoOLSoaH-11" value="" style="endArrow=diamondThin;endFill=1;endSize=24;html=1;rounded=0;entryX=0;entryY=0.5;entryDx=0;entryDy=0;edgeStyle=orthogonalEdgeStyle;" edge="1" parent="1" target="mOy5TlZxNX7XXbt4o4xT-30">
          <mxGeometry width="160" relative="1" as="geometry">
            <mxPoint x="-960" y="670" as="sourcePoint" />
            <mxPoint x="-800" y="670" as="targetPoint" />
          </mxGeometry>
        </mxCell>
        <mxCell id="M_Bqmwzb6-v6zoOLSoaH-12" value="" style="endArrow=diamondThin;endFill=0;endSize=24;html=1;rounded=0;exitX=0.75;exitY=0;exitDx=0;exitDy=0;entryX=0.303;entryY=0.996;entryDx=0;entryDy=0;entryPerimeter=0;" edge="1" parent="1" source="mOy5TlZxNX7XXbt4o4xT-13" target="mOy5TlZxNX7XXbt4o4xT-30">
          <mxGeometry width="160" relative="1" as="geometry">
            <mxPoint x="-440" y="830" as="sourcePoint" />
            <mxPoint x="-280" y="830" as="targetPoint" />
          </mxGeometry>
        </mxCell>
        <mxCell id="M_Bqmwzb6-v6zoOLSoaH-13" value="" style="endArrow=diamondThin;endFill=0;endSize=24;html=1;rounded=0;exitX=0.684;exitY=1;exitDx=0;exitDy=0;exitPerimeter=0;entryX=-0.005;entryY=0.2;entryDx=0;entryDy=0;entryPerimeter=0;edgeStyle=orthogonalEdgeStyle;" edge="1" parent="1" source="mOy5TlZxNX7XXbt4o4xT-12" target="SXWqYd9VcLFMOsoht8He-12">
          <mxGeometry width="160" relative="1" as="geometry">
            <mxPoint y="1460" as="sourcePoint" />
            <mxPoint x="160" y="1460" as="targetPoint" />
            <Array as="points">
              <mxPoint x="160" y="1799" />
            </Array>
          </mxGeometry>
        </mxCell>
        <mxCell id="M_Bqmwzb6-v6zoOLSoaH-14" value="" style="endArrow=diamondThin;endFill=0;endSize=24;html=1;rounded=0;exitX=0;exitY=0.5;exitDx=0;exitDy=0;edgeStyle=orthogonalEdgeStyle;entryX=0.824;entryY=0.983;entryDx=0;entryDy=0;entryPerimeter=0;" edge="1" parent="1" source="SXWqYd9VcLFMOsoht8He-12" target="mOy5TlZxNX7XXbt4o4xT-21">
          <mxGeometry width="160" relative="1" as="geometry">
            <mxPoint x="-1020" y="1260" as="sourcePoint" />
            <mxPoint x="-1018" y="796" as="targetPoint" />
            <Array as="points">
              <mxPoint x="-1018" y="1859" />
            </Array>
          </mxGeometry>
        </mxCell>
        <mxCell id="M_Bqmwzb6-v6zoOLSoaH-15" value="" style="endArrow=diamondThin;endFill=1;endSize=24;html=1;rounded=0;exitX=0.75;exitY=0;exitDx=0;exitDy=0;entryX=0;entryY=0.5;entryDx=0;entryDy=0;edgeStyle=orthogonalEdgeStyle;" edge="1" parent="1" source="mOy5TlZxNX7XXbt4o4xT-1" target="mOy5TlZxNX7XXbt4o4xT-21">
          <mxGeometry width="160" relative="1" as="geometry">
            <mxPoint x="-1620" y="740" as="sourcePoint" />
            <mxPoint x="-1460" y="740" as="targetPoint" />
          </mxGeometry>
        </mxCell>
        <mxCell id="M_Bqmwzb6-v6zoOLSoaH-16" value="" style="endArrow=block;dashed=1;endFill=0;endSize=12;html=1;rounded=0;exitX=0.75;exitY=0;exitDx=0;exitDy=0;entryX=0.25;entryY=1;entryDx=0;entryDy=0;" edge="1" parent="1" source="mOy5TlZxNX7XXbt4o4xT-6" target="mOy5TlZxNX7XXbt4o4xT-1">
          <mxGeometry width="160" relative="1" as="geometry">
            <mxPoint x="-1800" y="1060" as="sourcePoint" />
            <mxPoint x="-1640" y="1060" as="targetPoint" />
          </mxGeometry>
        </mxCell>
        <mxCell id="M_Bqmwzb6-v6zoOLSoaH-17" value="" style="endArrow=block;dashed=1;endFill=0;endSize=12;html=1;rounded=0;exitX=0.25;exitY=0;exitDx=0;exitDy=0;entryX=0.75;entryY=1;entryDx=0;entryDy=0;" edge="1" parent="1" source="mOy5TlZxNX7XXbt4o4xT-10" target="mOy5TlZxNX7XXbt4o4xT-1">
          <mxGeometry width="160" relative="1" as="geometry">
            <mxPoint x="-1658.5" y="1100" as="sourcePoint" />
            <mxPoint x="-1561.5" y="960" as="targetPoint" />
          </mxGeometry>
        </mxCell>
        <mxCell id="M_Bqmwzb6-v6zoOLSoaH-18" value="" style="endArrow=open;endFill=1;endSize=12;html=1;rounded=0;entryX=1;entryY=0.5;entryDx=0;entryDy=0;exitX=0;exitY=0.5;exitDx=0;exitDy=0;" edge="1" parent="1" source="mOy5TlZxNX7XXbt4o4xT-19" target="mOy5TlZxNX7XXbt4o4xT-22">
          <mxGeometry width="160" relative="1" as="geometry">
            <mxPoint x="-1300" y="660" as="sourcePoint" />
            <mxPoint x="-1360" y="680" as="targetPoint" />
          </mxGeometry>
        </mxCell>
      </root>
    </mxGraphModel>
  </diagram>
</mxfile>
